<?xml version="1.0" encoding="utf-8"?>
<!-- Svg Vector Icons : http://www.onlinewebfonts.com/icon -->
<!DOCTYPE svg PUBLIC "-//W3C//DTD SVG 1.1//EN" "http://www.w3.org/Graphics/SVG/1.1/DTD/svg11.dtd">
<svg version="1.1" xmlns="http://www.w3.org/2000/svg" xmlns:xlink="http://www.w3.org/1999/xlink" x="0px" y="0px" viewBox="0 0 256 256" enable-background="new 0 0 256 256" xml:space="preserve">
<metadata> Svg Vector Icons : http://www.onlinewebfonts.com/icon </metadata>
<g><g><path fill="#000000" d="M52.8,160.5V182c8.1-1.5,16.6-3.1,25.5-4.8c9.4-1.8,19.3-3.6,29.8-5.6v-25.1c-10.5,2.6-20.4,5.2-29.8,7.5C69.4,156.3,60.9,158.4,52.8,160.5z"/><path fill="#000000" d="M52.8,222.7v21.5h55.3v-25.1c-10.5,0.7-20.4,1.3-29.8,1.9C69.4,221.6,60.9,222.2,52.8,222.7z"/><path fill="#000000" d="M52.8,191.4v21.5c8.1-0.8,16.6-1.6,25.5-2.4c9.4-0.9,19.3-1.8,29.8-2.8v-25.1c-10.5,1.7-20.4,3.3-29.8,4.8C69.4,188.7,60.9,190.1,52.8,191.4z"/><path fill="#000000" d="M52.8,129.8v21.5c8.1-2.3,16.6-4.6,25.5-7.2c9.4-2.6,19.3-5.4,29.8-8.4v-25.1c-10.5,3.6-20.4,7.1-29.8,10.3C69.4,124.1,60.9,127,52.8,129.8z"/><path fill="#000000" d="M219.6,28.6L219.6,28.6L191.5,10l-10.3,4.8L92.1,56.5L88,58.4v33.2L34.9,110l-4.8,1.7v120h-4.6V246h19V121.8l74.7-26v148.9h53.4v-14.3h-11.1V93.2l-27.9-17.4l-0.9,0.3l-0.2,0.1l-8.4,2.9l-21.6,7.5V67.4l74.7-34.9v212.6h53.4v-14.3h-10.9L219.6,28.6L219.6,28.6z"/></g></g>
</svg>