<svg width="12" height="13" viewBox="0 0 12 13" fill="none" xmlns="http://www.w3.org/2000/svg">
<g clip-path="url(#clip0_573_1073)">
<path d="M2.9061 5.67373C2.95688 5.67373 3.01352 5.68155 3.07602 5.69717C3.13852 5.7128 3.20102 5.73428 3.26352 5.76162C3.32602 5.78897 3.38852 5.81436 3.45102 5.8378C3.51352 5.86123 3.57016 5.88467 3.62094 5.90811L3.52719 5.91983C3.49594 5.92373 3.46274 5.92569 3.42758 5.92569C3.36117 5.92569 3.30063 5.91592 3.24594 5.89639C3.19125 5.87686 3.14047 5.85147 3.0936 5.82022C3.04672 5.78897 2.99985 5.76553 2.95297 5.74991C2.9061 5.73428 2.86313 5.72256 2.82406 5.71475C2.785 5.71475 2.74985 5.72256 2.7186 5.73819C2.68735 5.75381 2.6561 5.77139 2.62485 5.79092C2.62485 5.7753 2.61117 5.76748 2.58383 5.76748C2.61117 5.74014 2.66195 5.71866 2.73617 5.70303C2.81039 5.68741 2.86703 5.67764 2.9061 5.67373ZM3.69711 5.93741C3.85727 5.93741 4.00375 5.96475 4.13656 6.01944C4.08188 6.03897 4.02719 6.05459 3.9725 6.06631C3.91781 6.07803 3.86117 6.08584 3.80258 6.08975C3.72445 6.08975 3.65414 6.08194 3.59164 6.06631C3.61117 6.03506 3.6307 6.01553 3.65024 6.00772C3.66977 5.99991 3.68539 5.97647 3.69711 5.93741ZM5.99985 0.499906C6.55063 0.499906 7.07992 0.572172 7.58774 0.716703C8.09555 0.861234 8.57211 1.06241 9.01742 1.32022C9.46274 1.57803 9.86899 1.89248 10.2362 2.26358C10.6034 2.63467 10.9159 3.03897 11.1737 3.47647C11.4315 3.91397 11.6346 4.39053 11.783 4.90616C11.9315 5.42178 12.0038 5.95303 11.9998 6.49991C11.9998 7.05069 11.9276 7.57998 11.783 8.0878C11.6385 8.59561 11.4373 9.07217 11.1795 9.51748C10.9217 9.9628 10.6073 10.369 10.2362 10.7362C9.86508 11.1034 9.46078 11.4159 9.02328 11.6737C8.58578 11.9315 8.10922 12.1347 7.5936 12.2831C7.07797 12.4315 6.54672 12.5038 5.99985 12.4999C5.44906 12.4999 4.91977 12.4276 4.41195 12.2831C3.90414 12.1386 3.42758 11.9374 2.98227 11.6796C2.53695 11.4218 2.1307 11.1073 1.76352 10.7362C1.39633 10.3651 1.08383 9.96084 0.826017 9.52334C0.568204 9.08584 0.365079 8.60928 0.216642 8.09366C0.0682044 7.57803 -0.00406119 7.04678 -0.000154935 6.49991C-0.000154935 5.94912 0.0721107 5.41983 0.216642 4.91202C0.361173 4.4042 0.562345 3.92764 0.820158 3.48233C1.07797 3.03702 1.39242 2.63077 1.76352 2.26358C2.13461 1.89639 2.53891 1.58389 2.97641 1.32608C3.41391 1.06827 3.89047 0.86514 4.4061 0.716703C4.92172 0.568265 5.45297 0.496 5.99985 0.499906ZM10.4647 3.75186C10.41 3.66592 10.3553 3.58389 10.3006 3.50577C10.2459 3.42764 10.1893 3.34756 10.1307 3.26553C10.1229 3.30069 10.1131 3.32608 10.1014 3.3417C10.0897 3.35733 10.0819 3.39248 10.078 3.44717C10.078 3.48233 10.0916 3.51553 10.119 3.54678C10.1463 3.57803 10.1815 3.60928 10.2245 3.64053C10.2674 3.67178 10.3104 3.69522 10.3534 3.71084C10.3963 3.72647 10.4334 3.74014 10.4647 3.75186ZM10.0604 3.17764C10.0604 3.20889 10.0545 3.23037 10.0428 3.24209H10.078C10.0936 3.24209 10.1053 3.24405 10.1131 3.24795L10.0604 3.17764ZM5.99985 11.7499C6.44516 11.7499 6.8807 11.6933 7.30649 11.58C7.73227 11.4667 8.13461 11.3065 8.51352 11.0995C8.89242 10.8925 9.24399 10.6386 9.5682 10.3378C9.89242 10.037 10.1756 9.70108 10.4178 9.32998C10.367 9.2128 10.3182 9.09366 10.2713 8.97256C10.2245 8.85147 10.201 8.72647 10.201 8.59756C10.201 8.45694 10.2069 8.34366 10.2186 8.25772C10.2303 8.17178 10.244 8.09561 10.2596 8.0292C10.2752 7.9628 10.283 7.90616 10.283 7.85928C10.283 7.81241 10.2772 7.75186 10.2655 7.67764C10.2538 7.60342 10.2205 7.52334 10.1659 7.43741C10.1112 7.35147 10.0389 7.23037 9.94906 7.07412C9.95297 7.04678 9.95883 7.00967 9.96664 6.9628C9.97445 6.91592 9.98227 6.86709 9.99008 6.81631C9.99789 6.76553 9.99985 6.71866 9.99594 6.67569C9.99203 6.63272 9.98227 6.59561 9.96664 6.56436C9.86508 6.55264 9.75961 6.53116 9.65024 6.49991C9.54086 6.46866 9.4432 6.42178 9.35727 6.35928L9.39242 6.32998C9.34164 6.3417 9.29086 6.35733 9.24008 6.37686C9.1893 6.39639 9.14047 6.41787 9.0936 6.44131C9.04672 6.46475 8.99594 6.48037 8.94125 6.48819C8.88656 6.496 8.83383 6.50381 8.78305 6.51162L8.6893 6.49991L8.70688 6.45889C8.65219 6.47452 8.5936 6.49405 8.5311 6.51748C8.46859 6.54092 8.40805 6.55264 8.34945 6.55264C8.31039 6.55264 8.25375 6.53897 8.17953 6.51162C8.10531 6.48428 8.0311 6.45108 7.95688 6.41202C7.88266 6.37295 7.81625 6.32998 7.75766 6.28311C7.69906 6.23623 7.66977 6.19131 7.66977 6.14834L7.68149 6.13077C7.66195 6.10733 7.63656 6.08584 7.60531 6.06631C7.57406 6.04678 7.54477 6.02725 7.51742 6.00772C7.49008 5.98819 7.46469 5.9667 7.44125 5.94327C7.41781 5.91983 7.40805 5.89248 7.41195 5.86123L7.47641 5.8085L7.34164 5.79092L7.29477 5.61514C7.30258 5.63467 7.32016 5.64248 7.3475 5.63858C7.37485 5.63467 7.39633 5.62686 7.41195 5.61514L7.20102 5.50381L7.3475 5.12881C7.29281 4.92569 7.27914 4.76944 7.30649 4.66006C7.33383 4.55069 7.38656 4.46084 7.46469 4.39053C7.54281 4.32022 7.62875 4.24991 7.7225 4.17959C7.81625 4.10928 7.91195 4.01358 8.00961 3.89248L7.99203 3.82217L8.37875 3.35342L8.46664 3.3417C8.57602 3.3417 8.69906 3.3378 8.83578 3.32998C8.9725 3.32217 9.11117 3.3085 9.2518 3.28897C9.39242 3.26944 9.53109 3.24991 9.66781 3.23037C9.80453 3.21084 9.92953 3.18545 10.0428 3.1542C9.91781 3.00577 9.78695 2.86514 9.65024 2.73233C9.51352 2.59952 9.36703 2.47256 9.21078 2.35147C9.16781 2.36709 9.11508 2.38858 9.05258 2.41592C8.99008 2.44327 8.92758 2.47842 8.86508 2.52139C8.80258 2.56436 8.75375 2.61123 8.7186 2.66202C8.68344 2.7128 8.66195 2.76553 8.65414 2.82022L8.6893 2.93155C8.61899 3.04483 8.54086 3.11514 8.45492 3.14248C8.36899 3.16983 8.28109 3.18545 8.19125 3.18936C8.10141 3.19327 8.00766 3.19327 7.91 3.18936C7.81235 3.18545 7.7186 3.20303 7.62875 3.24209L7.535 3.04287L7.62289 2.70303L7.52328 2.55655L8.53695 2.24014C8.49399 2.13077 8.42367 2.04873 8.32602 1.99405C8.22836 1.93936 8.12094 1.91202 8.00375 1.91202V1.85342L8.33188 1.80069C7.9686 1.621 7.59164 1.48428 7.20102 1.39053C6.81039 1.29678 6.41 1.24991 5.99985 1.24991C5.66 1.24991 5.32406 1.28311 4.99203 1.34952C4.66 1.41592 4.33969 1.51162 4.0311 1.63662C3.7225 1.76162 3.42367 1.91787 3.13461 2.10537C2.84555 2.29287 2.58188 2.50381 2.3436 2.73819C2.44516 2.73819 2.52328 2.76358 2.57797 2.81436C2.63266 2.86514 2.68344 2.92178 2.73031 2.98428C2.77719 3.04678 2.82602 3.10342 2.8768 3.1542C2.92758 3.20498 2.99594 3.23233 3.08188 3.23623L3.17563 3.16592L3.16391 3.03702L3.35727 2.76162L3.20492 2.32803C3.22445 2.31631 3.25375 2.29678 3.29281 2.26944C3.33188 2.24209 3.36508 2.22842 3.39242 2.22842C3.50961 2.22842 3.59945 2.23428 3.66195 2.246C3.72445 2.25772 3.77914 2.2792 3.82602 2.31045C3.87289 2.3417 3.91391 2.38662 3.94906 2.44522C3.98422 2.50381 4.03891 2.57803 4.11313 2.66787L4.32406 2.50381C4.36313 2.51944 4.42563 2.54483 4.51156 2.57998C4.5975 2.61514 4.68539 2.65811 4.77524 2.70889C4.86508 2.75967 4.94125 2.81241 5.00375 2.86709C5.06625 2.92178 5.09945 2.97256 5.10336 3.01944C5.10336 3.07803 5.08188 3.12491 5.03891 3.16006C4.99594 3.19522 4.9393 3.22452 4.86899 3.24795C4.79867 3.27139 4.72641 3.28897 4.65219 3.30069C4.57797 3.31241 4.50375 3.32803 4.42953 3.34756C4.35531 3.36709 4.29867 3.38662 4.25961 3.40616C4.22055 3.42569 4.19711 3.45889 4.1893 3.50577L4.52914 3.61709C4.45102 3.6835 4.36703 3.74405 4.27719 3.79873C4.18735 3.85342 4.0936 3.9042 3.99594 3.95108L4.01938 4.05069L3.48031 4.26162V4.42569L3.4393 4.44327L3.4686 4.23819L3.44516 4.23233C3.41781 4.23233 3.40219 4.23819 3.39828 4.24991C3.39438 4.26162 3.39242 4.2753 3.39242 4.29092C3.39242 4.30655 3.39633 4.32217 3.40414 4.3378C3.41195 4.35342 3.41391 4.36514 3.41 4.37295L3.33383 4.33194L3.34555 4.35537C3.34555 4.36709 3.35141 4.38467 3.36313 4.40811C3.37485 4.43155 3.39047 4.45303 3.41 4.47256C3.42953 4.49209 3.44516 4.51162 3.45688 4.53116C3.4686 4.55069 3.47641 4.56045 3.48031 4.56045C3.48031 4.57217 3.4725 4.58389 3.45688 4.59561C3.44125 4.60733 3.42172 4.61514 3.39828 4.61905C3.37485 4.62295 3.35922 4.62881 3.35141 4.63662C3.3436 4.64444 3.3436 4.64639 3.35141 4.64248C3.4061 4.64248 3.41781 4.64639 3.38656 4.6542C3.35531 4.66202 3.30649 4.68155 3.24008 4.7128C3.17367 4.74405 3.11313 4.78897 3.05844 4.84756C3.00375 4.90616 2.9725 4.99209 2.96469 5.10537C2.96469 5.17178 2.96664 5.23623 2.97055 5.29873C2.97445 5.36123 2.9725 5.42569 2.96469 5.49209C2.91 5.34366 2.82797 5.23037 2.7186 5.15225C2.60922 5.07412 2.47641 5.03506 2.32016 5.03506L2.0682 5.0585L2.19125 5.14053C2.12485 5.13272 2.05649 5.12491 1.98617 5.11709C1.91586 5.10928 1.8436 5.10733 1.76938 5.11123C1.69516 5.11514 1.62875 5.13077 1.57016 5.15811C1.51156 5.18545 1.45297 5.22647 1.39438 5.28116L1.35922 5.54483C1.35922 5.66983 1.38656 5.77139 1.44125 5.84952C1.49594 5.92764 1.59164 5.96866 1.72836 5.97256C1.84555 5.97256 1.96078 5.95498 2.07406 5.91983C2.18735 5.88467 2.29867 5.84366 2.40805 5.79678C2.37289 5.88272 2.33383 5.96475 2.29086 6.04287C2.24789 6.121 2.21664 6.20694 2.19711 6.30069L2.27328 6.33584C2.36703 6.27334 2.45297 6.26358 2.5311 6.30655C2.60922 6.34952 2.68539 6.41202 2.75961 6.49405C2.83383 6.57608 2.91 6.66006 2.98813 6.746C3.06625 6.83194 3.15024 6.89444 3.24008 6.9335L3.04086 7.03897L2.57211 6.7753C2.57602 6.78311 2.57992 6.80069 2.58383 6.82803C2.58774 6.85537 2.58578 6.86123 2.57797 6.84561L2.36703 6.48819C2.24203 6.48428 2.10922 6.46475 1.9686 6.42959C1.82797 6.39444 1.68539 6.34756 1.54086 6.28897C1.39633 6.23037 1.26156 6.16592 1.13656 6.09561C1.01156 6.0253 0.896329 5.95108 0.790861 5.87295L0.749845 6.49991C0.749845 6.97647 0.814298 7.44131 0.943204 7.89444C1.07211 8.34756 1.25375 8.77334 1.48813 9.17178C1.7225 9.57022 2.00961 9.9335 2.34945 10.2616C2.6893 10.5898 3.06625 10.869 3.48031 11.0995C3.46078 11.0175 3.45883 10.9355 3.47445 10.8534C3.49008 10.7714 3.50961 10.6894 3.53305 10.6073C3.55649 10.5253 3.58188 10.4433 3.60922 10.3612C3.63656 10.2792 3.65024 10.1952 3.65024 10.1093C3.65024 9.98428 3.6307 9.85342 3.59164 9.7167C3.55258 9.57998 3.5057 9.44131 3.45102 9.30069C3.39633 9.16006 3.33578 9.02139 3.26938 8.88467C3.20297 8.74795 3.15024 8.61905 3.11117 8.49795C3.07211 8.37686 3.04086 8.26358 3.01742 8.15811C2.99399 8.05264 3.0057 7.96084 3.05258 7.88272L2.96469 7.8417C2.98813 7.78702 3.01938 7.73428 3.05844 7.6835C3.0975 7.63272 3.13852 7.58194 3.18149 7.53116C3.22445 7.48037 3.25766 7.42569 3.2811 7.36709C3.30453 7.3085 3.3182 7.24991 3.32211 7.19131C3.32211 7.15225 3.3143 7.11123 3.29867 7.06827C3.28305 7.0253 3.26938 6.98428 3.25766 6.94522L3.3807 6.97452C3.44711 6.82217 3.53695 6.71866 3.65024 6.66397C3.76352 6.60928 3.9061 6.57998 4.07797 6.57608C4.0975 6.57608 4.13852 6.58389 4.20102 6.59952C4.26352 6.61514 4.32992 6.63662 4.40024 6.66397C4.47055 6.69131 4.53695 6.7128 4.59945 6.72842C4.66195 6.74405 4.70883 6.75967 4.74008 6.7753C4.74008 6.80264 4.7557 6.82022 4.78695 6.82803C4.8182 6.83584 4.83578 6.84952 4.83969 6.86905L4.82797 6.91592C4.83969 6.91983 4.86703 6.9335 4.91 6.95694C4.95297 6.98037 4.99985 7.00967 5.05063 7.04483C5.10141 7.07998 5.14633 7.11123 5.18539 7.13858C5.22445 7.16592 5.2518 7.18741 5.26742 7.20303C5.33774 7.20303 5.43344 7.22647 5.55453 7.27334C5.67563 7.32022 5.80844 7.37881 5.95297 7.44912C6.0975 7.51944 6.24008 7.60342 6.3807 7.70108C6.52133 7.79873 6.65414 7.89639 6.77914 7.99405C6.90414 8.0917 6.99985 8.18936 7.06625 8.28702C7.13266 8.38467 7.17172 8.47061 7.18344 8.54483L6.98422 8.75577C6.99985 8.95498 6.98617 9.10733 6.9432 9.2128C6.90024 9.31827 6.83383 9.40616 6.74399 9.47647C6.65414 9.54678 6.55063 9.60538 6.43344 9.65225C6.31625 9.69913 6.1893 9.76553 6.05258 9.85147C6.05258 9.92959 6.03305 10.0136 5.99399 10.1034C5.95492 10.1933 5.9061 10.2792 5.8475 10.3612C5.78891 10.4433 5.7186 10.5116 5.63656 10.5663C5.55453 10.621 5.4725 10.6483 5.39047 10.6483L5.14438 10.4608C5.15219 10.4687 5.15219 10.4823 5.14438 10.5019C5.13656 10.5214 5.1268 10.5253 5.11508 10.5136C5.15414 10.5878 5.16391 10.6737 5.14438 10.7714C5.12485 10.869 5.09164 10.9687 5.04477 11.0702C4.99789 11.1718 4.94516 11.2675 4.88656 11.3573C4.82797 11.4472 4.77524 11.5233 4.72836 11.5858C4.9393 11.6405 5.15024 11.6815 5.36117 11.7089C5.57211 11.7362 5.785 11.7499 5.99985 11.7499Z" fill="#787878"/>
</g>
<defs>
<clipPath id="clip0_573_1073">
<rect width="12" height="12" fill="white" transform="translate(0 0.5)"/>
</clipPath>
</defs>
</svg>
