<svg width="200" height="200" viewBox="0 0 200 200" fill="none" xmlns="http://www.w3.org/2000/svg">
<path d="M177.381 58.2163H103.302V39.6331C103.302 33.5516 108.233 28.6215 114.314 28.6215H166.369C172.451 28.6215 177.381 33.5516 177.381 39.6331L177.381 58.2163Z" fill="#165C92"/>
<path d="M199.871 58.8072C199.871 52.997 195.16 48.2864 189.35 48.2864H90.9401V29.2124C90.9401 23.4018 86.2299 18.6916 80.4193 18.6916H27.382C21.5713 18.6916 16.8611 23.4018 16.8611 29.2124V159.227C16.8611 165.038 21.5713 169.748 27.382 169.748H189.349C195.16 169.748 199.87 165.038 199.87 159.227L199.871 58.8072Z" fill="#AA6100"/>
<path d="M160.39 72.2896H86.3113V53.7064C86.3113 47.625 91.2415 42.6948 97.3229 42.6948H149.378C155.46 42.6948 160.39 47.625 160.39 53.7064V72.2896H160.39Z" fill="#1A6FB0"/>
<g opacity="0.1">
<path d="M187.453 71.3008C187.453 63.8366 181.403 57.7859 173.939 57.7859H78.5229V41.706C78.5229 34.2418 72.4722 28.1911 65.0081 28.1911H14.9653C9.15463 28.1911 4.44446 32.9017 4.44446 38.7119V168.727C4.44446 174.537 9.15463 179.247 14.9653 179.247H176.933C182.743 179.247 187.453 174.537 187.453 168.727V71.3008Z" fill="black"/>
</g>
<path d="M187.453 70.0222C187.453 64.212 182.743 59.5014 176.933 59.5014H78.5234V40.4274C78.5234 34.6167 73.8132 29.9066 68.0026 29.9066H14.9653C9.15463 29.9066 4.44446 34.6172 4.44446 40.4274V170.442C4.44446 176.253 9.15463 180.963 14.9653 180.963H176.933C182.743 180.963 187.453 176.253 187.453 170.442V70.0222Z" fill="#FFA733"/>
<path d="M70.6138 128.775H16.8616V155.631H70.6138V128.775Z" fill="white"/>
</svg>
