<svg width="28" height="13" viewBox="0 0 28 13" fill="none" xmlns="http://www.w3.org/2000/svg">
<rect x="0.25" y="0.75" width="11.5" height="11.5" rx="5.75" fill="#BBD9FF"/>
<rect x="0.25" y="0.75" width="11.5" height="11.5" rx="5.75" stroke="#F8F8F8" stroke-width="0.5"/>
<path d="M9.33092 7.99609L9.60255 6.42413C9.61848 6.33199 9.6141 6.23749 9.58971 6.14723C9.56531 6.05696 9.52149 5.97312 9.4613 5.90156C9.40112 5.83 9.32603 5.77245 9.24128 5.73294C9.15654 5.69343 9.06418 5.67291 8.97068 5.67282H6.97413C6.92758 5.67278 6.88159 5.6626 6.83937 5.64301C6.79714 5.62342 6.75968 5.59487 6.72958 5.55935C6.69949 5.52383 6.67748 5.48219 6.66509 5.43732C6.6527 5.39244 6.65021 5.34541 6.65781 5.29948L6.91326 3.74101C6.95452 3.48795 6.94271 3.22908 6.87858 2.98084C6.85086 2.87831 6.79775 2.78443 6.72414 2.70786C6.65054 2.63129 6.55882 2.57451 6.45747 2.54277L6.4016 2.52466C6.27539 2.48435 6.13855 2.49372 6.01901 2.55086C5.88802 2.61405 5.79247 2.72925 5.75702 2.86602L5.57362 3.57264C5.51534 3.79753 5.43049 4.01469 5.32088 4.21953C5.1606 4.5189 4.91325 4.75893 4.65626 4.98047L4.10145 5.45822C4.02454 5.52469 3.96446 5.60843 3.92616 5.70259C3.88785 5.79675 3.8724 5.89865 3.88107 5.99993L4.1943 9.61891C4.20809 9.77889 4.28133 9.9279 4.39959 10.0365C4.51785 10.1452 4.67253 10.2055 4.83311 10.2057H6.62429C7.96547 10.2057 9.11015 9.271 9.33053 7.99609" fill="#1877F2"/>
<path opacity="0.5" fill-rule="evenodd" clip-rule="evenodd" d="M2.66473 5.38382C2.73919 5.38057 2.81202 5.40621 2.86803 5.45539C2.92403 5.50457 2.95886 5.57348 2.96525 5.64774L3.33897 9.9768C3.3453 10.0413 3.33843 10.1063 3.31876 10.1681C3.2991 10.2298 3.26706 10.2868 3.2246 10.3358C3.18214 10.3847 3.13016 10.4244 3.07182 10.4526C3.01348 10.4808 2.95002 10.4967 2.8853 10.4995C2.82059 10.5023 2.75598 10.4919 2.69542 10.4689C2.63487 10.4459 2.57964 10.4108 2.5331 10.3657C2.48657 10.3207 2.44971 10.2666 2.42478 10.2068C2.39985 10.147 2.38736 10.0828 2.38809 10.018V5.6724C2.38812 5.59792 2.41691 5.52632 2.46846 5.47256C2.52 5.41879 2.59031 5.387 2.66473 5.38382Z" fill="#1877F2"/>
<rect x="8.25" y="0.75" width="11.5" height="11.5" rx="5.75" fill="#FDB8BF"/>
<rect x="8.25" y="0.75" width="11.5" height="11.5" rx="5.75" stroke="#F8F8F8" stroke-width="0.5"/>
<path d="M15.875 3.6875C15.0875 3.6875 14.3938 4.08125 14 4.7C13.6063 4.08125 12.9125 3.6875 12.125 3.6875C10.8875 3.6875 9.875 4.7 9.875 5.9375C9.875 8.16875 14 10.4375 14 10.4375C14 10.4375 18.125 8.1875 18.125 5.9375C18.125 4.7 17.1125 3.6875 15.875 3.6875Z" fill="#E00016"/>
<rect x="16.25" y="0.75" width="11.5" height="11.5" rx="5.75" fill="#FFEEC5"/>
<rect x="16.25" y="0.75" width="11.5" height="11.5" rx="5.75" stroke="#F8F8F8" stroke-width="0.5"/>
<path d="M24.8284 3.6715C26.3904 5.2335 26.3904 7.76639 24.8284 9.32839C23.2664 10.8904 20.7337 10.8904 19.1715 9.32839C17.6095 7.76639 17.6095 5.2335 19.1715 3.6715C20.7335 2.1095 23.2662 2.1095 24.8284 3.6715Z" fill="#FFCB4C"/>
<path d="M22.2841 6.78424C21.5077 7.56068 20.9021 7.98512 20.1408 8.49846C19.9672 8.61601 19.7123 8.92712 20.141 9.35601C20.9981 10.2131 23.0546 10.2998 24.427 8.92735C25.7997 7.55468 25.7132 5.49846 24.8557 4.64112C24.427 4.21224 24.1157 4.46735 23.9983 4.64112C23.4855 5.40179 23.0608 6.00757 22.2841 6.78424Z" fill="#65471B"/>
<path d="M20.5697 8.92714C20.5697 8.92714 21.427 8.49847 22.7128 7.21247C23.9988 5.92669 24.4272 5.06958 24.4272 5.06958C24.4272 5.06958 24.8557 6.35558 23.3557 7.85558C21.8557 9.35558 20.5697 8.92714 20.5697 8.92714Z" fill="white"/>
<path d="M19.8366 8.10743C19.8037 8.14069 19.7611 8.1627 19.715 8.17033C19.6689 8.17796 19.6215 8.17082 19.5797 8.14992C19.5379 8.12901 19.5037 8.09543 19.4821 8.05395C19.4605 8.01248 19.4526 7.96524 19.4594 7.91899C19.465 7.87988 19.5801 7.11232 20.0759 6.38076C19.4921 6.57476 19.0561 7.0021 19.0506 7.00765C19.0089 7.04932 18.9523 7.07272 18.8934 7.0727C18.8344 7.07268 18.7779 7.04924 18.7362 7.00754C18.6945 6.96584 18.6712 6.9093 18.6712 6.85035C18.6712 6.7914 18.6946 6.73488 18.7363 6.69321C18.771 6.65854 19.599 5.84254 20.6219 5.84254C20.6659 5.84244 20.7089 5.85542 20.7455 5.87982C20.7821 5.90422 20.8106 5.93895 20.8275 5.97959C20.8443 6.02024 20.8487 6.06497 20.8401 6.1081C20.8314 6.15124 20.8102 6.19084 20.779 6.22188C20.0541 6.94676 19.9006 7.97165 19.899 7.98165C19.8923 8.02923 19.8704 8.07336 19.8366 8.10743ZM23.6072 4.33632C23.5734 4.37014 23.5295 4.39211 23.4821 4.39899C23.4717 4.40054 22.443 4.55788 21.7219 5.27899C21.6908 5.31006 21.6512 5.33121 21.6081 5.33978C21.565 5.34835 21.5203 5.34395 21.4797 5.32714C21.4391 5.31032 21.4044 5.28185 21.38 5.24531C21.3556 5.20878 21.3426 5.16582 21.3426 5.12188C21.3426 4.09876 22.1586 3.27099 22.1932 3.23632C22.2351 3.19581 22.2912 3.17337 22.3495 3.17384C22.4078 3.1743 22.4635 3.19763 22.5047 3.2388C22.546 3.27998 22.5694 3.3357 22.5699 3.39396C22.5705 3.45223 22.5481 3.50838 22.5077 3.55032C22.5019 3.5561 22.0746 3.99188 21.8806 4.57565C22.6121 4.07988 23.3794 3.96476 23.4186 3.95921C23.4647 3.95259 23.5118 3.96067 23.5531 3.9823C23.5945 4.00394 23.628 4.03803 23.6488 4.07975C23.6697 4.12147 23.6769 4.16871 23.6694 4.21475C23.662 4.2608 23.6402 4.30333 23.6072 4.33632Z" fill="#65471B"/>
<path d="M24.689 5.1788C24.8339 5.19642 24.9808 5.18533 25.1213 5.14617C25.2619 5.10701 25.3933 5.04055 25.5082 4.95058C25.6231 4.86061 25.7191 4.74889 25.7908 4.62181C25.8625 4.49472 25.9085 4.35476 25.9261 4.20991C25.9438 4.06507 25.9327 3.91816 25.8936 3.77758C25.8544 3.63701 25.788 3.50552 25.6981 3.39062C25.6081 3.27572 25.4964 3.17967 25.3693 3.10794C25.2423 3.03621 25.1023 2.99022 24.9574 2.97258C24.3483 2.89858 22.6443 3.58658 22.6174 3.80725C22.5906 4.02791 24.0799 5.10436 24.689 5.1788ZM20.7014 9.16636C20.7191 9.31121 20.708 9.45811 20.6688 9.59867C20.6297 9.73923 20.5632 9.8707 20.4732 9.98558C20.3833 10.1005 20.2715 10.1965 20.1445 10.2682C20.0174 10.3399 19.8774 10.3859 19.7326 10.4035C19.5877 10.4211 19.4408 10.4101 19.3002 10.3709C19.1597 10.3318 19.0282 10.2654 18.9133 10.1754C18.7984 10.0855 18.7023 9.97376 18.6306 9.84668C18.5589 9.71961 18.5129 9.57965 18.4952 9.4348C18.421 8.82547 19.1092 7.12147 19.3299 7.09458C19.5503 7.06791 20.627 8.55725 20.7014 9.16636Z" fill="#64AADD"/>
</svg>
