<svg width="25" height="24" viewBox="0 0 25 24" fill="none" xmlns="http://www.w3.org/2000/svg">
<path d="M3.5 10.234L4.247 10.17C4.22978 9.97788 4.13924 9.79981 3.99416 9.67274C3.84909 9.54566 3.66064 9.47936 3.46796 9.4876C3.27528 9.49584 3.09318 9.57798 2.95948 9.71697C2.82578 9.85596 2.75076 10.0411 2.75 10.234H3.5ZM20.736 12.057L20.03 16.137L21.509 16.393L22.214 12.313L20.736 12.057ZM13.745 21.25H9.096V22.75H13.745V21.25ZM8.185 20.413L7.373 11.02L5.878 11.149L6.691 20.542L8.185 20.413ZM20.03 16.137C19.523 19.067 16.881 21.25 13.745 21.25V22.75C17.571 22.75 20.871 20.081 21.509 16.393L20.03 16.137ZM13.755 5.09997L13.092 9.14497L14.572 9.38696L15.235 5.34297L13.755 5.09997ZM7.688 10.246L9.127 9.00596L8.147 7.86997L6.71 9.10996L7.688 10.246ZM11.744 4.97197L12.22 3.13797L10.768 2.76197L10.292 4.59496L11.744 4.97197ZM12.938 2.77797L13.083 2.82497L13.542 1.39697L13.397 1.34997L12.938 2.77797ZM11.023 6.81597C11.3352 6.23187 11.5772 5.61291 11.744 4.97197L10.292 4.59496C10.1542 5.12125 9.95553 5.62969 9.7 6.10997L11.023 6.81597ZM13.083 2.82497C13.2255 2.86862 13.3547 2.94735 13.4588 3.05393C13.563 3.16051 13.6387 3.29152 13.679 3.43497L15.131 3.05897C15.0281 2.67026 14.8284 2.31397 14.5505 2.02334C14.2727 1.73271 13.9257 1.51721 13.542 1.39697L13.083 2.82497ZM12.22 3.13797C12.2402 3.06608 12.2757 2.9994 12.324 2.94245C12.3724 2.88551 12.4324 2.83964 12.5 2.80797L11.849 1.45697C11.317 1.71297 10.917 2.18697 10.768 2.76197L12.22 3.13797ZM12.5 2.80797C12.637 2.74299 12.7935 2.73227 12.938 2.77797L13.397 1.34997C12.8863 1.1867 12.3324 1.22498 11.849 1.45697L12.5 2.80797ZM14.654 10.984H19.834V9.48396H14.654V10.984ZM5.219 21.406L4.247 10.17L2.753 10.299L3.723 21.535L5.219 21.406ZM4.25 21.513V10.234H2.75V21.513H4.25ZM3.723 21.535C3.71995 21.4986 3.72549 21.462 3.73733 21.4276C3.74918 21.3931 3.76807 21.3614 3.7928 21.3346C3.81753 21.3078 3.84757 21.2864 3.881 21.2719C3.91443 21.2573 3.95053 21.2498 3.987 21.25V22.75C4.713 22.75 5.281 22.128 5.219 21.406L3.723 21.535ZM15.235 5.34297C15.3607 4.58275 15.3253 3.80461 15.131 3.05897L13.679 3.43597C13.8208 3.97915 13.8467 4.54611 13.755 5.09997L15.235 5.34297ZM9.096 21.25C8.86701 21.2496 8.64648 21.1634 8.47785 21.0085C8.30923 20.8536 8.20475 20.6411 8.185 20.413L6.691 20.542C6.74303 21.1441 7.01888 21.7049 7.46411 22.1137C7.90933 22.5224 8.49159 22.7495 9.096 22.75V21.25ZM9.127 9.00596C9.807 8.41996 10.539 7.72297 11.024 6.81597L9.7 6.10997C9.354 6.75897 8.803 7.30596 8.147 7.86997L9.127 9.00596ZM22.214 12.313C22.2742 11.966 22.2578 11.61 22.166 11.27C22.0741 10.9299 21.9091 10.6141 21.6823 10.3446C21.4556 10.0751 21.1727 9.85843 20.8534 9.70976C20.5341 9.56109 20.1862 9.48403 19.834 9.48396V10.984C20.401 10.984 20.834 11.496 20.736 12.057L22.214 12.313ZM3.987 21.25C4.133 21.25 4.25 21.368 4.25 21.513H2.75C2.75 22.195 3.303 22.75 3.987 22.75V21.25ZM13.092 9.14497C13.0547 9.37154 13.0672 9.60352 13.1285 9.8248C13.1899 10.0461 13.2986 10.2514 13.4472 10.4264C13.5958 10.6015 13.7807 10.7421 13.9891 10.8386C14.1975 10.935 14.4244 10.984 14.654 10.984V9.48396C14.6418 9.48402 14.6297 9.48238 14.6187 9.47724C14.6076 9.4721 14.5978 9.46459 14.59 9.45523C14.5821 9.44587 14.5765 9.4349 14.5734 9.4231C14.5703 9.4113 14.5698 9.39896 14.572 9.38696L13.092 9.14497ZM7.373 11.02C7.3608 10.8752 7.38208 10.7295 7.437 10.595C7.49193 10.4605 7.57794 10.3409 7.688 10.246L6.708 9.10897C6.41814 9.3591 6.19177 9.67444 6.04748 10.0291C5.9032 10.3837 5.84511 10.7675 5.878 11.149L7.373 11.02Z" fill="black"/>
</svg>
