<svg width="25" height="27" viewBox="0 0 25 27" fill="none" xmlns="http://www.w3.org/2000/svg">
<path d="M19.0637 17.0842H3.76623C3.17865 17.074 2.61897 16.8348 2.20992 16.4191C1.80087 16.0033 1.5758 15.4448 1.5837 14.8658V3.79314C1.5758 3.21413 1.80087 2.65565 2.20992 2.23988C2.61897 1.82412 3.17865 1.58496 3.76623 1.57477H19.0637C19.6512 1.58496 20.2109 1.82412 20.62 2.23988C21.029 2.65565 21.2543 3.21413 21.2464 3.79314V14.8658C21.2543 15.4448 21.029 16.0033 20.62 16.4191C20.2109 16.8348 19.6512 17.074 19.0637 17.0842V17.0842Z" stroke="#44475C" stroke-width="2" stroke-miterlimit="10"/>
<path d="M1.58362 5.44969L11.415 9.32462L21.2463 5.44969" stroke="#44475C" stroke-width="2" stroke-linejoin="round"/>
</svg>
