<svg width="25" height="32" viewBox="0 0 25 32" fill="none" xmlns="http://www.w3.org/2000/svg">
<g clip-path="url(#clip0_1_141)">
<path fill-rule="evenodd" clip-rule="evenodd" d="M15.25 7.75C15.25 6.09315 13.9069 4.75 12.25 4.75C10.5931 4.75 9.25 6.09315 9.25 7.75C9.25 9.40685 10.5931 10.75 12.25 10.75C13.9069 10.75 15.25 9.40685 15.25 7.75ZM12.25 9.25C11.4216 9.25 10.75 8.57843 10.75 7.75C10.75 6.92157 11.4216 6.25 12.25 6.25C13.0784 6.25 13.75 6.92157 13.75 7.75C13.75 8.57843 13.0784 9.25 12.25 9.25ZM20.7194 16.5672L16.4847 11.7653C15.9151 11.1197 15.0956 10.7499 14.2347 10.75H10.2653C9.40437 10.7499 8.58488 11.1197 8.01531 11.7653L3.78063 16.5672C3.06513 17.299 3.06861 18.4693 3.78844 19.1968C4.50827 19.9243 5.67849 19.9402 6.41781 19.2325L7.94594 18.0063L6.39531 23.9013C5.96764 24.8449 6.3859 25.9565 7.32953 26.3842C8.27316 26.8119 9.38482 26.3936 9.8125 25.45L12.25 21.2434L14.6875 25.45C15.1336 26.3605 16.2227 26.7515 17.146 26.3326C18.0693 25.9136 18.4924 24.8366 18.1009 23.9013L16.5541 18.0063L18.0822 19.2325C18.8215 19.9402 19.9917 19.9243 20.7116 19.1968C21.4314 18.4693 21.4349 17.299 20.7194 16.5672ZM19.6403 18.1394C19.57 18.2098 19.4745 18.2494 19.375 18.2494C19.2755 18.2494 19.18 18.2098 19.1097 18.1394C19.09 18.1206 19.0703 18.1019 19.0487 18.085L15.7188 15.415C15.4667 15.2138 15.1143 15.1963 14.8435 15.3714C14.5728 15.5465 14.4443 15.8751 14.5244 16.1875L16.6694 24.3438C16.6804 24.3872 16.6955 24.4296 16.7144 24.4703C16.7733 24.5921 16.762 24.7361 16.685 24.8473C16.6079 24.9584 16.477 25.0195 16.3423 25.007C16.2076 24.9946 16.0901 24.9106 16.0347 24.7872C16.0255 24.7669 16.0152 24.7472 16.0037 24.7281L12.8988 19.375C12.7646 19.1437 12.5174 19.0013 12.25 19.0013C11.9826 19.0013 11.7354 19.1437 11.6012 19.375L8.5 24.7234C8.48857 24.7425 8.47825 24.7622 8.46906 24.7825C8.427 24.8727 8.35078 24.9426 8.25719 24.9766C8.11457 25.0288 7.9545 24.9899 7.85181 24.878C7.74912 24.766 7.72409 24.6032 7.78844 24.4656C7.80733 24.4249 7.82239 24.3826 7.83344 24.3391L9.97563 16.1875C10.0557 15.8751 9.92723 15.5465 9.65646 15.3714C9.38569 15.1963 9.03327 15.2138 8.78125 15.415L5.45125 18.085C5.42969 18.1019 5.41 18.1206 5.39031 18.1394C5.29654 18.2382 5.15652 18.2785 5.02458 18.2444C4.89263 18.2104 4.78953 18.1075 4.75527 17.9756C4.72101 17.8437 4.76098 17.7036 4.85969 17.6097C4.87094 17.5984 4.88125 17.5872 4.89156 17.575L9.14031 12.7572C9.42518 12.4346 9.83491 12.2498 10.2653 12.25H14.2347C14.6651 12.2498 15.0748 12.4346 15.3597 12.7572L19.6084 17.575C19.6187 17.5872 19.6291 17.5984 19.6403 17.6097C19.7863 17.7561 19.7863 17.993 19.6403 18.1394Z" fill="#737373"/>
</g>
<defs>
<clipPath id="clip0_1_141">
<rect width="24" height="24" fill="white" transform="translate(0.25 4)"/>
</clipPath>
</defs>
</svg>
