<svg width="25" height="32" viewBox="0 0 25 32" fill="none" xmlns="http://www.w3.org/2000/svg">
<g clip-path="url(#clip0_1_123)">
<path fill-rule="evenodd" clip-rule="evenodd" d="M12.25 6.25C6.86522 6.25 2.5 10.6152 2.5 16C2.5 21.3848 6.86522 25.75 12.25 25.75C17.6348 25.75 22 21.3848 22 16C21.9943 10.6176 17.6324 6.25568 12.25 6.25ZM12.25 24.25C7.69365 24.25 4 20.5563 4 16C4 11.4437 7.69365 7.75 12.25 7.75C16.8063 7.75 20.5 11.4437 20.5 16C20.4948 20.5542 16.8042 24.2448 12.25 24.25ZM16.75 16C16.75 16.4142 16.4142 16.75 16 16.75H13V19.75C13 20.1642 12.6642 20.5 12.25 20.5C11.8358 20.5 11.5 20.1642 11.5 19.75V16.75H8.5C8.08579 16.75 7.75 16.4142 7.75 16C7.75 15.5858 8.08579 15.25 8.5 15.25H11.5V12.25C11.5 11.8358 11.8358 11.5 12.25 11.5C12.6642 11.5 13 11.8358 13 12.25V15.25H16C16.4142 15.25 16.75 15.5858 16.75 16Z" fill="#737373"/>
</g>
<defs>
<clipPath id="clip0_1_123">
<rect width="24" height="24" fill="white" transform="translate(0.25 4)"/>
</clipPath>
</defs>
</svg>
