<svg width="323" height="222" viewBox="0 0 323 222" fill="none" xmlns="http://www.w3.org/2000/svg">
<path fill-rule="evenodd" clip-rule="evenodd" d="M3.78506 9.25966C3.78506 10.2375 2.93753 11.0301 1.89253 11.0301C0.847538 11.0301 0 10.2372 0 9.25966C0 4.57597 4.07304 0.765717 9.07974 0.765717H26.8434C27.3742 0.765717 27.8808 0.974335 28.2394 1.34081L41.5635 14.9575H83.9206C88.9273 14.9575 93.0003 18.7678 93.0003 23.4515C93.0003 24.4293 92.1528 25.2219 91.1078 25.2219C90.0628 25.2219 89.2152 24.4293 89.2152 23.4515C89.2152 20.7203 86.8401 18.4984 83.9206 18.4984H40.7305C40.1996 18.4984 39.693 18.2898 39.3344 17.9233L26.01 4.30658H9.07974C6.16019 4.30658 3.78506 6.52847 3.78506 9.25966ZM41.5635 26.7675H83.9203C88.927 26.7675 93 30.5778 93 35.2614V75.7403C93 80.424 88.927 84.2343 83.9203 84.2343H9.07974C4.07304 84.2343 0 80.424 0 75.7403C0 74.7628 0.847538 73.9699 1.89253 73.9699C2.93753 73.9699 3.78506 74.7628 3.78506 75.7403C3.78506 78.4715 6.16019 80.6934 9.07974 80.6934H83.9206C86.8401 80.6934 89.2152 78.4712 89.2152 75.7403V35.2611C89.2152 32.53 86.8401 30.3081 83.9206 30.3081H40.7305C40.1996 30.3081 39.693 30.0994 39.3344 29.733L26.01 16.1163H9.07974C6.16019 16.1163 3.78506 18.3382 3.78506 21.0693V56.0732C3.78506 57.0508 2.93753 57.8436 1.89253 57.8436C0.847538 57.8436 0 57.0508 0 56.0732V21.0693C0 16.386 4.07304 12.5757 9.07974 12.5757H26.8434C27.3742 12.5757 27.8808 12.7843 28.2394 13.1508L41.5635 26.7675ZM231.044 148.18C232.089 148.167 232.927 147.364 232.914 146.386C232.88 143.655 235.227 141.403 238.146 141.367L255.075 141.153L268.57 154.6C268.934 154.962 269.443 155.164 269.974 155.157L313.16 154.612C316.08 154.575 318.483 156.766 318.517 159.497C318.529 160.475 319.387 161.257 320.432 161.244C321.477 161.231 322.314 160.427 322.302 159.45C322.243 154.766 318.122 151.008 313.116 151.071L270.762 151.606L257.267 138.159C256.904 137.797 256.394 137.595 255.864 137.602L238.101 137.826C233.095 137.889 229.07 141.751 229.13 146.434C229.142 147.411 229.999 148.194 231.044 148.18ZM270.911 163.415L313.264 162.88C318.271 162.817 322.392 166.575 322.451 171.259L322.962 211.734C323.021 216.418 318.997 220.279 313.991 220.342L239.156 221.288C234.15 221.351 230.029 217.593 229.97 212.909C229.957 211.932 230.795 211.128 231.84 211.115C232.885 211.102 233.742 211.884 233.754 212.862C233.789 215.593 236.192 217.784 239.111 217.747L313.946 216.802C316.865 216.765 319.212 214.513 319.178 211.782L318.666 171.306C318.632 168.575 316.229 166.383 313.309 166.42L270.123 166.966C269.592 166.973 269.083 166.771 268.72 166.409L255.224 152.961L238.295 153.175C235.376 153.212 233.029 155.464 233.064 158.195L233.506 193.196C233.518 194.173 232.681 194.977 231.636 194.99C230.591 195.003 229.734 194.221 229.721 193.244L229.279 158.243C229.22 153.56 233.244 149.698 238.251 149.635L256.013 149.411C256.544 149.404 257.053 149.606 257.416 149.968L270.911 163.415Z" fill="white"/>
</svg>
