<svg xmlns="http://www.w3.org/2000/svg" xmlns:xlink="http://www.w3.org/1999/xlink" viewBox="0 0 1200 1200" width="1200" height="1200" preserveAspectRatio="xMidYMid meet" style="width: 100%; height: 100%; transform: translate3d(0px, 0px, 0px); content-visibility: visible;" id="Zoom In"><defs><clipPath id="__lottie_element_1486"><rect width="1200" height="1200" x="0" y="0"/></clipPath><clipPath id="__lottie_element_1488"><path d="M0,0 L1200,0 L1200,1200 L0,1200z"/></clipPath><filter id="__lottie_element_1490" x="-100%" y="-100%" width="300%" height="300%"><feGaussianBlur result="filter_result_0" stdDeviation="9.24 9.24" edgeMode="duplicate"/></filter><symbol id="__lottie_element_1491"><g><g transform="matrix(1.6611120700836182,0,0,1.6611120700836182,3239.507080078125,2300.978759765625)" opacity="1" style="display: block;"><g opacity="1" transform="matrix(1,0,0,1,0,0)"><path fill="rgb(188,228,241)" fill-opacity="1" d=" M-1404,-1024 C-1404,-921.8270263671875 -1486.8270263671875,-839 -1589,-839 C-1691.1729736328125,-839 -1774,-921.8270263671875 -1774,-1024 C-1774,-1126.1729736328125 -1691.1729736328125,-1209 -1589,-1209 C-1486.8270263671875,-1209 -1404,-1126.1729736328125 -1404,-1024z"/></g></g></g></symbol><linearGradient id="__lottie_element_1497" spreadMethod="pad" gradientUnits="userSpaceOnUse" x1="-2248" y1="-3421.466064453125" x2="-1889.6639404296875" y2="-3387.339111328125"><stop offset="0%" stop-color="rgb(11,92,214)"/><stop offset="50%" stop-color="rgb(6,112,235)"/><stop offset="100%" stop-color="rgb(0,133,255)"/></linearGradient><clipPath id="__lottie_element_1505"><path d="M0,0 L1200,0 L1200,1200 L0,1200z"/></clipPath><mask id="__lottie_element_1491_1" mask-type="alpha"><use xmlns:ns1="http://www.w3.org/1999/xlink" ns1:href="#__lottie_element_1491"/></mask><linearGradient id="__lottie_element_1511" spreadMethod="pad" gradientUnits="userSpaceOnUse" x1="-2248" y1="-3421.466064453125" x2="-1889.6639404296875" y2="-3387.339111328125"><stop offset="0%" stop-color="rgb(11,92,214)"/><stop offset="50%" stop-color="rgb(6,112,235)"/><stop offset="100%" stop-color="rgb(0,133,255)"/></linearGradient></defs><g clip-path="url(#__lottie_element_1486)"><g mask="url(#__lottie_element_1491_1)" style="display: block;"><g clip-path="url(#__lottie_element_1488)" filter="url(#__lottie_element_1490)" transform="matrix(1,0,0,1,0,0)" opacity="1"><g transform="matrix(1.5399999618530273,0,0,1.5399999618530273,2939.260009765625,2203.8466796875)" opacity="1" style="display: block;"><g opacity="1" transform="matrix(1,0,0,1,0,0)"><path fill="url(#__lottie_element_1511)" fill-opacity="1" d=" M-1519,-1268.583984375 C-1519,-1268.583984375 -1518.9990234375,-1268.583984375 -1518.9990234375,-1268.583984375 C-1407.7960205078125,-1268.583984375 -1317.6490478515625,-1178.43701171875 -1317.6490478515625,-1067.2340087890625 C-1317.6490478515625,-1067.2340087890625 -1317.6490478515625,-1067.2320556640625 -1317.6490478515625,-1067.2320556640625 C-1317.6490478515625,-956.0289916992188 -1407.7960205078125,-865.8820190429688 -1518.9990234375,-865.8820190429688 C-1518.9990234375,-865.8820190429688 -1519,-865.8820190429688 -1519,-865.8820190429688 C-1630.2030029296875,-865.8820190429688 -1720.3509521484375,-956.0289916992188 -1720.3509521484375,-1067.2320556640625 C-1720.3509521484375,-1067.2320556640625 -1720.3509521484375,-1067.2340087890625 -1720.3509521484375,-1067.2340087890625 C-1720.3509521484375,-1178.43701171875 -1630.2030029296875,-1268.583984375 -1519,-1268.583984375z"/></g></g></g></g><g transform="matrix(1.4500000476837158,0,0,1.4500000476837158,2802.550048828125,2107.795654296875)" opacity="1" style="display: block;"><g opacity="1" transform="matrix(1,0,0,1,0,0)"><path fill="url(#__lottie_element_1497)" fill-opacity="1" d=" M-1519,-1268.583984375 C-1519,-1268.583984375 -1518.9990234375,-1268.583984375 -1518.9990234375,-1268.583984375 C-1407.7960205078125,-1268.583984375 -1317.6490478515625,-1178.43701171875 -1317.6490478515625,-1067.2340087890625 C-1317.6490478515625,-1067.2340087890625 -1317.6490478515625,-1067.2320556640625 -1317.6490478515625,-1067.2320556640625 C-1317.6490478515625,-956.0289916992188 -1407.7960205078125,-865.8820190429688 -1518.9990234375,-865.8820190429688 C-1518.9990234375,-865.8820190429688 -1519,-865.8820190429688 -1519,-865.8820190429688 C-1630.2030029296875,-865.8820190429688 -1720.3509521484375,-956.0289916992188 -1720.3509521484375,-1067.2320556640625 C-1720.3509521484375,-1067.2320556640625 -1720.3509521484375,-1067.2340087890625 -1720.3509521484375,-1067.2340087890625 C-1720.3509521484375,-1178.43701171875 -1630.2030029296875,-1268.583984375 -1519,-1268.583984375z"/></g></g><g transform="matrix(1.6611120700836182,0,0,1.6611120700836182,3239.507080078125,2300.978759765625)" opacity="0.41000000000000003" style="display: block;"><g opacity="1" transform="matrix(1,0,0,1,0,0)"><path fill="rgb(189,200,228)" fill-opacity="1" d=" M-1404,-1024 C-1404,-921.8270263671875 -1486.8270263671875,-839 -1589,-839 C-1691.1729736328125,-839 -1774,-921.8270263671875 -1774,-1024 C-1774,-1126.1729736328125 -1691.1729736328125,-1209 -1589,-1209 C-1486.8270263671875,-1209 -1404,-1126.1729736328125 -1404,-1024z"/></g></g><g transform="matrix(1.6611120700836182,0,0,1.6611120700836182,3239.507080078125,2300.978759765625)" opacity="0.62" style="display: block;"><g opacity="1" transform="matrix(1,0,0,1,0,0)"><path stroke-linecap="butt" stroke-linejoin="miter" fill-opacity="0" stroke-miterlimit="4" stroke="rgb(194,205,232)" stroke-opacity="1" stroke-width="4" d=" M-1404,-1024 C-1404,-921.8270263671875 -1486.8270263671875,-839 -1589,-839 C-1691.1729736328125,-839 -1774,-921.8270263671875 -1774,-1024 C-1774,-1126.1729736328125 -1691.1729736328125,-1209 -1589,-1209 C-1486.8270263671875,-1209 -1404,-1126.1729736328125 -1404,-1024z"/></g></g><g clip-path="url(#__lottie_element_1505)" transform="matrix(1.5025256872177124,0,0,1.5025256872177124,-205.96987915039062,-193.4202880859375)" opacity="1" style="display: block;"><g transform="matrix(0.14502693712711334,0.40480512380599976,-0.40480512380599976,0.14502693712711334,529.8630981445312,528.3621826171875)" opacity="1" style="display: block;"><g opacity="1" transform="matrix(1,0,0,1,0,0)"><path fill="rgb(255,255,255)" fill-opacity="1" d=" M21.33300018310547,-64 C21.33300018310547,-64 -21.33300018310547,-64 -21.33300018310547,-64 C-21.33300018310547,-64 -21.33300018310547,-106.66699981689453 -21.33300018310547,-106.66699981689453 C-21.33300018310547,-118.4489974975586 -30.885000228881836,-128 -42.66699981689453,-128 C-54.44900131225586,-128 -64,-118.4489974975586 -64,-106.66699981689453 C-64,-106.66699981689453 -64,-64 -64,-64 C-64,-64 -106.66699981689453,-64 -106.66699981689453,-64 C-118.4489974975586,-64 -128,-54.44900131225586 -128,-42.66699981689453 C-128,-30.885000228881836 -118.4489974975586,-21.33300018310547 -106.66699981689453,-21.33300018310547 C-106.66699981689453,-21.33300018310547 -64,-21.33300018310547 -64,-21.33300018310547 C-64,-21.33300018310547 -64,21.33300018310547 -64,21.33300018310547 C-64,33.1150016784668 -54.44900131225586,42.66699981689453 -42.66699981689453,42.66699981689453 C-30.885000228881836,42.66699981689453 -21.33300018310547,33.1150016784668 -21.33300018310547,21.33300018310547 C-21.33300018310547,21.33300018310547 -21.33300018310547,-21.33300018310547 -21.33300018310547,-21.33300018310547 C-21.33300018310547,-21.33300018310547 21.33300018310547,-21.33300018310547 21.33300018310547,-21.33300018310547 C33.1150016784668,-21.33300018310547 42.66699981689453,-30.885000228881836 42.66699981689453,-42.66699981689453 C42.66699981689453,-54.44900131225586 33.1150016784668,-64 21.33300018310547,-64z"/></g></g><g transform="matrix(0.42573750019073486,0.06039534881711006,-0.06039534881711006,0.42573750019073486,556.5350952148438,525.6443481445312)" opacity="1" style="display: block;"><g opacity="1" transform="matrix(1,0,0,1,0,0)"><path fill="rgb(255,255,255)" fill-opacity="1" d=" M249.74899291992188,219.58399963378906 C249.74899291992188,219.58399963378906 122.41100311279297,92.24500274658203 122.41100311279297,92.24500274658203 C197.10899353027344,0.8870000243186951 183.60299682617188,-133.72900390625 92.24500274658203,-208.427001953125 C0.8870000243186951,-283.125 -133.72900390625,-269.6199951171875 -208.427001953125,-178.26199340820312 C-283.125,-86.90399932861328 -269.6199951171875,47.7130012512207 -178.26199340820312,122.41100311279297 C-99.57099914550781,186.7519989013672 13.553999900817871,186.7519989013672 92.24500274658203,122.41100311279297 C92.24500274658203,122.41100311279297 219.58399963378906,249.74899291992188 219.58399963378906,249.74899291992188 C228.0590057373047,257.9339904785156 241.56399536132812,257.6990051269531 249.74899291992188,249.2239990234375 C257.7330017089844,240.95700073242188 257.7330017089844,227.8509979248047 249.74899291992188,219.58399963378906z M-42.66699981689453,128 C-136.9239959716797,128 -213.33299255371094,51.59000015258789 -213.33299255371094,-42.66699981689453 C-213.33299255371094,-136.9239959716797 -136.9239959716797,-213.33299255371094 -42.66699981689453,-213.33299255371094 C51.59000015258789,-213.33299255371094 128,-136.9239959716797 128,-42.66699981689453 C127.89399719238281,51.54600143432617 51.54600143432617,127.89399719238281 -42.66699981689453,128z"/></g></g></g></g></svg>